<svg xmlns="http://www.w3.org/2000/svg" width="487.024" height="505.701" viewBox="0 0 487.024 505.701"><defs><style>.a{opacity:0.2;}.b{fill:#d9eeff;}.c{fill:#1bbc9d;}.d{fill:#fff;}.e{fill:#27debf;}.f{fill:#002176;}.g{fill:#ffa8a7;}.h{fill:#2460da;}.i{fill:#ffdb4c;}.j{fill:#ffc000;}.k{fill:#2343ba;}.l{fill:#f28f8f;}.m{fill:#4c9fff;}.n{fill:#c1e4ff;}.o{opacity:0.15;}.p{fill:#abd5fd;}</style></defs><g transform="translate(-105.879 -117.958)"><g transform="translate(105.879 117.958)"><g class="a" transform="translate(97.274 312.076)"><path class="b" d="M195.525,459.314c72.372,37.807,189.71,37.809,262.082,0s72.372-99.106,0-136.915-189.711-37.807-262.083,0S123.152,421.507,195.525,459.314Z" transform="translate(-141.245 -294.045)"/></g><g transform="translate(174.13 279.326)"><path class="c" d="M224.369,314.006c-.339-.455-.145-31.069-10.526-40.175s-19.539-1.885-13.529,9.024c3.96,7.189,15.17,19.921,15.193,32.125Z" transform="translate(-198.401 -269.69)"/><g transform="translate(6.516 3.585)"><path class="d" d="M218.982,313.8a.557.557,0,0,1-.553-.5c-3.114-29.352-14.873-39.876-14.99-39.979a.555.555,0,0,1,.726-.84c.5.43,12.2,10.861,15.369,40.7a.558.558,0,0,1-.493.612A.454.454,0,0,1,218.982,313.8Z" transform="translate(-203.248 -272.356)"/></g></g><g transform="translate(141.502 292.491)"><g transform="translate(0)"><path class="e" d="M230.724,343.037c-3.8-17.276-9.231-27.3-30.733-38.375-19.815-10.2-36.843-20.985-17.041-24.906,16.438-3.254,48.1,22.871,49.224,45.734Z" transform="translate(-174.136 -279.481)"/></g><g transform="translate(8.258 3.795)"><path class="d" d="M226.494,320.356a.555.555,0,0,1-.52-.36c-6.495-17.318-27.2-34.072-45.217-36.587a.554.554,0,0,1-.473-.625.54.54,0,0,1,.625-.473c18.371,2.564,39.484,19.643,46.1,37.3a.557.557,0,0,1-.325.715A.536.536,0,0,1,226.494,320.356Z" transform="translate(-180.278 -282.303)"/></g></g><g transform="translate(352.839 324.382)"><g transform="translate(1.707 49.042)"><path class="f" d="M334.4,348.51c-.566.752-.67,2.488-1.244,4.835s-.768,4.167-.383,5.317,2.908,3.735,6,4.693,6.9.153,10.589-2.049,6.468-4.882,11.717-6.376,7.876-2.707,10.362-4.7c2.91-2.337,6.8-8.8,1.23-10.289-5.614-1.506-17.681,3.784-28.695,4.263Z" transform="translate(-332.574 -339.669)"/></g><g transform="translate(3.534 50.999)"><path class="g" d="M333.933,341.124v8.251a5.515,5.515,0,0,0,7.031,3.191,7.361,7.361,0,0,0,4.725-6.531l.321-4.909H333.933Z" transform="translate(-333.933 -341.124)"/></g><path class="h" d="M350.6,303.2c.059,10.264-2.882,54.614-2.882,54.614s-4.2,5.311-13.315,0l-3.1-49.54Z" transform="translate(-331.305 -303.197)"/></g><g transform="translate(345.446 381.356)"><g transform="translate(0.055)"><path class="e" d="M325.848,381.67c1.152-8.567,10.047-24.665,25.3-31.478s33.721-4.877,37.236-1.917,4.424,9.149-2.919,11.131-13.113,5.435-8.567,9.216,5.961,9.109-1.478,10.554-16.214-3.86-18.279.871,2.3,8.358-5.992,10.07-18.462-4.7-24.193,4.753Z" transform="translate(-325.848 -345.568)"/></g><g transform="translate(0 3.526)"><path class="d" d="M326.362,387.256a.568.568,0,0,1-.215-.043.554.554,0,0,1-.3-.727c11.325-26.836,44.052-39,55.469-38.263a.555.555,0,0,1-.07,1.108c-9.07-.542-42.592,9.659-54.378,37.587A.554.554,0,0,1,326.362,387.256Z" transform="translate(-325.807 -348.191)"/></g><g transform="translate(14.749 20.44)"><path class="d" d="M367.4,366.461a.577.577,0,0,1-.229-.048c-.155-.07-15.523-6.874-29.721-3.688a.555.555,0,1,1-.242-1.084c14.569-3.262,30.264,3.688,30.421,3.761a.554.554,0,0,1-.23,1.06Z" transform="translate(-336.776 -360.77)"/></g></g><g transform="translate(216.455 282.96)"><path class="i" d="M277.979,272.392l-48.1,27.762,114.24,65.956,36.076-20.831,12.025-6.93Z" transform="translate(-229.878 -272.392)"/><g transform="translate(126.248 65.956)"><path class="j" d="M359.86,321.443v6.942l-36.076,20.829-.018-6.942Z" transform="translate(-323.767 -321.443)"/></g></g><g transform="translate(269.711 204.236)"><g transform="translate(0 94.65)"><path class="k" d="M269.484,303.023s42.121-12.711,49.444-14.714,21.371-5.381,25.474-3.542,6.188,3.971,6.566,9.893c.077,1.113,0,6.532,0,6.532s-20.359,6.3-37.04,6.3S269.484,303.023,269.484,303.023Z" transform="translate(-269.484 -284.237)"/></g><g transform="translate(17.717 37.893)"><path class="g" d="M300.943,245.98l-2.8,15.1L282.66,262.87l2.233-20.843Z" transform="translate(-282.66 -242.027)"/></g><g transform="translate(9.855)"><g transform="translate(38.625 29.789)"><path class="l" d="M307.515,236s2.032,6.23,1.411,6.613-3.387.2-3.387.2Z" transform="translate(-305.538 -236)"/></g><g transform="translate(8.3 4.896)"><path class="g" d="M311.3,222.412c2.666,2.806,5.2,7.506,4.084,19.406-1.225,13.042-5.123,16.518-6.765,17.283-2.454,1.143-10.8-.857-13.518-2.857-3.4-2.5-9.8-8.736-11.464-16.419-1.961-9.039.549-19.308,7.152-21.384C300.081,215.516,309.042,220.038,311.3,222.412Z" transform="translate(-282.985 -217.487)"/></g><path class="f" d="M319.512,230.084c-1.583,2.986-4.576,10.414-13.048,12.521,0,0-.468-5.063-4.665-5.112-4.224-.05-5.627,5.116-3.544,8.729s4.7,2.779,4.7,2.779-.42,7.111-5.556,9.651c0,0-6.164,2.808-11.789-.781-2.531-1.615-5.457-8.614-6.965-14.236-3.192-11.892-2.625-21,4.938-22.844,1.589-4.986,4.15-6.587,8.907-6.9,10.238-.676,16.855,6.9,25.365,6.9C322.3,220.791,321.32,226.673,319.512,230.084Z" transform="translate(-276.813 -213.846)"/><g transform="translate(1.834 3.906)"><path class="f" d="M283.3,220.636l-5.124-2.194a2.787,2.787,0,0,1,5.124,2.194Z" transform="translate(-278.177 -216.751)"/></g></g><g transform="translate(0.035 105.504)"><path class="h" d="M269.577,295.179c.015,8.092-.76,16.51,2.613,22.439,3.261,5.731,18.658,18.133,35.873,15.235,11.244-1.893,47.583-15.742,47.583-15.742s16.176-5.933,16.249-10.162c.108-6.235-.32-15-14.435-14.63-12.858.34-51,6.589-51,6.589Z" transform="translate(-269.51 -292.308)"/></g><g transform="translate(0 48.101)"><path class="m" d="M272.581,257.586c1.39-4.226,6.751-8.826,12.118-7.83,9.858,1.831,20.639,5.024,23.5,5.868h0s-1.283,21.72,9.862,28.294l1.47,27.661s-2.759,5.509-7.015,8.216c-4.6,2.927-11.011,7.315-22.585,6.355a28.481,28.481,0,0,1-20.447-11.2s.125-26.136.567-37.836C270.427,267.179,271.626,260.488,272.581,257.586Z" transform="translate(-269.484 -249.619)"/></g><g transform="translate(40.99 74.707)"><path class="h" d="M307.84,282.456s-5.824-6.039-7.872-13.051c0,0,0,10.257,7.986,15.8Z" transform="translate(-299.968 -269.405)"/></g></g><g transform="translate(307.827 250.746)"><g transform="translate(25.161)"><g transform="translate(0.001)"><path class="k" d="M340.4,269.838l6.254-8.982s1.491-2.165,2.043-3.071.933-3.9-.91-4.681c-3.336-1.384-10.27-4.662-12.306-4.669-.835,0-4.315,5.834-10.291,13.7-3.569,4.7-8.512,11.239-8.512,11.811s-1.273,1.171,3.912,3.827a84.462,84.462,0,0,0,11.534,4.624Z" transform="translate(-316.543 -248.435)"/></g><g transform="translate(0 4.67)"><path class="f" d="M344.383,258.888c-3.828,5.512-12.01,19.149-12.25,19.53-.206.328-12.048-4.745-15.282-6.14a1.727,1.727,0,0,0-.171.473c0,.573-1.273,1.171,3.912,3.827a84.461,84.461,0,0,0,11.534,4.624l8.276-12.56,6.254-8.982s1.491-2.165,2.043-3.071.933-3.9-.91-4.681C348.148,252.1,348.211,253.376,344.383,258.888Z" transform="translate(-316.542 -251.908)"/></g><g transform="translate(4.566 2.859)"><path class="n" d="M333.11,250.561l11.83,4.8-13.2,20.183-11.8-5.064Z" transform="translate(-319.938 -250.561)"/></g></g><g transform="translate(0.6 7.596)"><path class="g" d="M298.276,254.084c6.085,1.826,9.79,2.155,16.512,12.5s21.448,30.856,22.906,33.32c2.029,3.429,2.9,7.511,1.151,10.662-1.635,2.941-6.4,1.653-13.066-4.2-6.452-5.66-19.233-21.669-19.233-21.669S299.883,270.1,298.276,254.084Z" transform="translate(-298.276 -254.084)"/></g><g transform="translate(34.895 11.03)"><path class="g" d="M328.575,311.2c3.079-.878,7.728-12.324,11.27-25.3s5.334-15.867,5.455-19.957-.191-9.308-.191-9.308l-6.074,8.755a16.382,16.382,0,0,0-1.534-4.929c-.781-1.6-2.25-2.861-3.453-1.9-.645.514,1.049,2.714.687,7.619a25.47,25.47,0,0,0,.362,5.884l-11.315,27.407Z" transform="translate(-323.781 -256.638)"/></g><g transform="translate(0 7.596)"><path class="m" d="M298.43,254.084a46.557,46.557,0,0,1,8.8,2.785,14.042,14.042,0,0,1,6.649,5.462c4.7,7.814,11.428,18.937,11.428,18.937s1.148,9.687-10.616,13.063l-6.257-6.753a35.049,35.049,0,0,1-6.235-9.286C299.546,272.469,296.522,263.224,298.43,254.084Z" transform="translate(-297.83 -254.084)"/></g></g><g transform="translate(192.409 45.599)"><g transform="translate(0.098)"><path class="m" d="M343.848,180.258l-125.471-72.44c-3.165-1.827-5.789-.69-6.309,2.493a14.331,14.331,0,0,1,6.309-9.894L223.6,97.4a14.166,14.166,0,0,1,12.819,0l125.471,72.44a13.111,13.111,0,0,1,4.533,4.784l-18.038,10.414A13.1,13.1,0,0,0,343.848,180.258Z" transform="translate(-212.068 -95.87)"/></g><g transform="translate(132.966 78.757)"><path class="k" d="M334.238,458.381a14.166,14.166,0,0,1-6.41,11.1l-5.219,3.013a14.328,14.328,0,0,1-11.729.514c3.02,1.146,5.321-.557,5.321-4.214V171.172a13.11,13.11,0,0,0-1.877-6.317l18.038-10.414a13.1,13.1,0,0,1,1.877,6.317Z" transform="translate(-310.88 -154.441)"/></g><g transform="translate(0 11.074)"><path class="h" d="M343.866,177.42,218.4,104.98c-3.538-2.043-6.41-.385-6.41,3.7V406.3a14.175,14.175,0,0,0,6.41,11.1l125.461,72.442c3.553,2.043,6.409.385,6.409-3.7V188.522A14.134,14.134,0,0,0,343.866,177.42Zm.4,266.554c0,2.457-1.717,3.449-3.848,2.22L221.853,377.736A8.48,8.48,0,0,1,218,371.074V150.85c0-2.457,1.717-3.449,3.848-2.22l4.722,2.724L340.417,217.09a8.48,8.48,0,0,1,3.848,6.661Z" transform="translate(-211.995 -104.106)"/></g><g transform="translate(66.887 59.15)"><path class="f" d="M263.993,140.167a4.985,4.985,0,0,1,2.255,3.9c0,1.437-1.01,2.021-2.255,1.3a4.985,4.985,0,0,1-2.255-3.9C261.738,140.031,262.748,139.448,263.993,140.167Z" transform="translate(-261.738 -139.859)"/></g><g transform="translate(60.236 328.296)"><path class="k" d="M265.695,341.236c4.916,2.839,8.9,9.742,8.9,15.419s-3.986,7.979-8.9,5.141-8.9-9.742-8.9-15.419S260.779,338.4,265.695,341.236Z" transform="translate(-256.792 -340.02)"/></g><g transform="translate(43.338 58.478)"><g transform="translate(42.589 23.273)"><path class="f" d="M280.409,157.284a9.963,9.963,0,0,1,4.509,7.811c0,2.876-2.018,4.042-4.51,2.6a9.968,9.968,0,0,1-4.51-7.811C275.9,157.011,277.918,155.845,280.409,157.284Z" transform="translate(-275.898 -156.668)"/></g><path class="f" d="M280.3,162.273c0,1.917-1.435,2.644-3.2,1.622l-29.666-17.128a6.873,6.873,0,0,1-3.2-5.322c0-1.917,1.435-2.644,3.2-1.622l29.666,17.128A6.875,6.875,0,0,1,280.3,162.273Z" transform="translate(-244.225 -139.36)"/></g><g transform="translate(6.008 55.069)"><path class="k" d="M234.5,145.543,220.31,137.35c-2.123-1.226-3.846-.233-3.846,2.22V359.8a8.5,8.5,0,0,0,3.846,6.661l14.19,8.193Z" transform="translate(-216.463 -136.824)"/></g><g class="o" transform="translate(14.58 58.323)"><path class="d" d="M340.528,211.64v196.9l-117.69-67.941V139.244L336.68,204.98A8.478,8.478,0,0,1,340.528,211.64Z" transform="translate(-222.838 -139.244)"/></g><g transform="translate(14.58 58.323)"><path class="d" d="M223.579,140.525,336.31,205.62a7.806,7.806,0,0,1,3.477,6.02V407.254l-116.21-67.086V140.525m-.74-1.281V340.6l117.69,67.941V211.64a8.482,8.482,0,0,0-3.848-6.661L222.838,139.244Z" transform="translate(-222.838 -139.244)"/></g><g transform="translate(7.131 272.075)"><path class="m" d="M342.44,377.079V360.694L234.214,298.209,217.3,307.964a7.867,7.867,0,0,0,2.723,2.878L338.595,379.3C340.719,380.526,342.44,379.532,342.44,377.079Z" transform="translate(-217.298 -298.209)"/></g></g><g transform="translate(174.365 310.729)"><g transform="translate(114.24 69.43)"><path class="j" d="M319.613,351.62l-36.078,20.831v-6.944l36.076-20.83Z" transform="translate(-283.535 -344.678)"/></g><g transform="translate(0 24.303)"><path class="j" d="M198.577,311.118l114.24,65.956v6.944l-114.24-65.956Z" transform="translate(-198.576 -311.118)"/></g><g transform="translate(0.001)"><path class="i" d="M240.666,293.044l-42.089,24.3L312.817,383.3l36.076-20.83V355.53Z" transform="translate(-198.577 -293.044)"/></g></g><g transform="translate(156.6 204.733)"><g transform="translate(22.925 51.072)"><path class="g" d="M240.4,252.2c-3.583,0-6.313.216-12.918,9.8-5.584,8.1-23.9,33.366-24.982,34.572s8.252,5.449,8.252,5.449l24.651-24.826Z" transform="translate(-202.414 -252.198)"/></g><g transform="translate(26.724 87.386)"><path class="l" d="M205.239,285.213s1.96-1.053,6.92-1.013c3.083.026,5.009.218,5.337-.775.493-1.493,1.7-4.242,2.336-4.222v7.3Z" transform="translate(-205.239 -279.204)"/></g><g transform="translate(0 186.194)"><g transform="translate(0 7.453)"><path class="f" d="M203.4,367.424c-8.266,10.928-14.724,13.452-16.983,15.82s-.947,7.024,4.57,8.123,11.51-.235,15.075-3.791,6.027-8.209,9.664-10.81,5.5-3.292,6.04-6.358-2.208-12.18-2.208-12.18Z" transform="translate(-185.365 -358.229)"/></g><g transform="translate(8.51)"><path class="g" d="M205.185,352.686c.776,3.969,1.627,7.436-1.074,12.212a42.713,42.713,0,0,1-2.892,4.437c-4.821,6.495-8.751,11.563-9.448,12.454s3.4,3.719,8.079,1.782,8.681-8.852,11.725-13.018c1.358-1.858,2.687-3.544,3.742-4.842a9.2,9.2,0,0,0,2.061-6.175l-.245-6.335Z" transform="translate(-191.693 -352.686)"/></g></g><g transform="translate(20.133 201.716)"><g transform="translate(0 7.452)"><path class="f" d="M218.373,378.968c-8.266,10.928-14.724,13.452-16.983,15.818s-.947,7.024,4.57,8.123,11.51-.235,15.075-3.791,6.027-8.209,9.664-10.81,5.5-3.292,6.04-6.357-2.208-12.18-2.208-12.18Z" transform="translate(-200.338 -369.772)"/></g><g transform="translate(8.51)"><path class="g" d="M220.158,364.23c.776,3.969,1.627,7.436-1.074,12.212a42.713,42.713,0,0,1-2.892,4.437c-4.821,6.495-8.751,11.563-9.448,12.454s3.4,3.719,8.079,1.782,8.681-8.852,11.725-13.018c1.358-1.858,2.687-3.544,3.742-4.841a9.2,9.2,0,0,0,2.061-6.175l-.245-6.335Z" transform="translate(-206.666 -364.23)"/></g></g><g transform="translate(10.154 98.225)"><path class="m" d="M278.823,293.614c6.323,13.02,3.832,25.91-13.288,34.361-9.559,4.718-28.07,13.055-28.07,13.055s2.666,7.4,2.783,19.858c.1,10.974-2.822,34.844-2.822,34.844s-7.147,3.32-12.275.058c0,0-2.271-14.736-3.977-29.707-2.134-18.727-3.941-29.745-2.982-33.784.846-3.559,8.3-8.779,13.979-12.774l-19.85,9.336s4.26,5.888,5.272,16.5c1.224,12.832-.325,34.872-.325,34.872a15.251,15.251,0,0,1-12.263.518s-13.972-54.4-11.873-61.931c3.017-10.834,44.251-27.315,46.339-31.556Z" transform="translate(-192.916 -287.265)"/></g><g transform="translate(49.961 50.734)"><path class="i" d="M254.548,252.312c12.915,1.206,14.969-.862,18.882,9.606l-11.837,30.163,7.026,13.706c-1.67,2.5-21.391,13.093-38.7.453,0,0-5.274-18.985-7.265-33.566-1.3-9.532,7.093-20.046,11.275-20.474a36.578,36.578,0,0,1,4.554-.247Z" transform="translate(-222.52 -251.947)"/></g><g transform="translate(21.724 86.308)"><path class="g" d="M216.776,285.459c2.654.085,2.59-1.642,3.263-3.324.791-1.977,1.515-3.733,1.515-3.733l1.772,6.394,2.432,11.869s-7.136-.1-12.373,0-11.209-1.658-11.818-5.411c-.375-2.31,1.411-5.559,6.75-6.067A55.425,55.425,0,0,1,216.776,285.459Z" transform="translate(-201.52 -278.402)"/></g><g transform="translate(40.18 77.647)"><path class="f" d="M217.112,272.541c-2.693.94-1.99,5.438-.871,10.488s3,13.514,3.578,15.75,1.33,3.614,4.683,3.614,8.767.356,11.123,0,2.645-2.455,2.2-7.191a159.254,159.254,0,0,0-2.528-16.176c-.939-4.506-1.517-6.9-4.32-6.9C227.73,272.122,219.929,271.558,217.112,272.541Z" transform="translate(-215.246 -271.961)"/></g><g transform="translate(41.316 91.838)"><path class="g" d="M216.642,282.515c.264,1.185,2.684,2.17,4.893,2.262a44.483,44.483,0,0,0,9.527-.644c2.255-.6,3.682,3.268,1.518,6.811s-7.069,4.609-13.03,4.289c0,0-3.125-3-3.4-6.544A19.02,19.02,0,0,1,216.642,282.515Z" transform="translate(-216.091 -282.515)"/></g><g transform="translate(91.918 52.461)"><path class="g" d="M256.693,253.231c7.125,1.327,10.093,8.124,10.305,21.251s-1.474,56.844-1.627,58.784a8.425,8.425,0,0,0,3.473,7.726c5.077,3.633,11.216,6.552,14.213,8.583,3.952,2.677,0,7.07-4.854,7.367-4.546.278-11.825-3.659-13.68-5.2a14,14,0,0,1,2.114,4.02c.795,3.083-.011,4.907-1.424,4.259-.811-.371-1.791-1.585-4.569-5-4.827-5.922-5.859-8.584-5.921-15.958-.042-4.987-.414-30.717-.823-40.5-.25-6-.192-19.023-.091-27.12C253.909,263.48,255.194,254.375,256.693,253.231Z" transform="translate(-253.723 -253.231)"/></g><g transform="translate(48.249)"><g transform="translate(0 0.66)"><path class="f" d="M223.716,240.674s-4.535-7.227-1.312-14.187,16.221-16.027,31.072-9.569c14.131,6.145,12.868,22.382,12.925,29.742C266.456,253.593,223.716,240.674,223.716,240.674Z" transform="translate(-221.247 -214.707)"/></g><g transform="translate(6.605 5.177)"><path class="f" d="M226.159,224.882c2.057-4.041,15.127-10.482,27.551-4.168S264.7,244,264.7,255.7v21.526c0,3.063-7.184,7.281-14.105,4.831l.5-31.416s1.943-19.191-4.014-23.787S226.159,224.882,226.159,224.882Z" transform="translate(-226.159 -218.066)"/></g><g transform="translate(2.461)"><g transform="translate(0 7.822)"><path class="g" d="M252.148,241.07c.81.483,1.965-1.072,2.962-2.116s4.256-2.471,5.882.953c1.657,3.491-2.1,8.131-4.312,9.665-2.623,1.822-4.531.393-4.531.393l-.215,13.256s-3.258,7.174-11.1,8.236-6.224-5.4-3.649-8.567l.012-4.853s-4.049.815-5.96.305c-1.022-.273-3.461-3.22-5.034-6.519-1.767-3.7-4.706-10.28-2.09-21.4,2.81-11.947,15.645-12.312,23.3-7.494S252.148,241.07,252.148,241.07Z" transform="translate(-223.077 -220.033)"/><g transform="translate(14.123 31.726)"><path class="l" d="M233.58,249.908s7.257-1.462,9.794-2.81a8.351,8.351,0,0,0,3.507-3.471,11.437,11.437,0,0,1-1.993,4.093c-1.856,2.372-11.309,4.119-11.309,4.119Z" transform="translate(-233.58 -243.627)"/></g></g><g transform="translate(0.893)"><g transform="translate(13.313 27.034)"><ellipse class="f" cx="1.455" cy="1.511" rx="1.455" ry="1.511"/></g><g transform="translate(14.856 22.085)"><path class="f" d="M234.79,231.615l3.112,1.717a1.864,1.864,0,0,0-.725-2.477A1.734,1.734,0,0,0,234.79,231.615Z" transform="translate(-234.79 -230.641)"/></g><g transform="translate(30.768)"><path class="f" d="M246.623,214.267l.844,5.126a2.727,2.727,0,0,0,2.188-3.074A2.535,2.535,0,0,0,246.623,214.267Z" transform="translate(-246.623 -214.216)"/></g><g transform="translate(32.216 2.588)"><path class="f" d="M252.463,216.141l-4.763,2.072a2.727,2.727,0,0,0,3.516,1.369A2.535,2.535,0,0,0,252.463,216.141Z" transform="translate(-247.7 -216.141)"/></g><g transform="translate(10.982 37.541)"><path class="l" d="M235.229,242.135l-3.32,1.245a1.741,1.741,0,0,0,2.255,1.1A1.856,1.856,0,0,0,235.229,242.135Z" transform="translate(-231.909 -242.135)"/></g><g transform="translate(0 21.345)"><path class="f" d="M224.086,233.015l2.837-2.185a1.718,1.718,0,0,0-2.466-.378A1.881,1.881,0,0,0,224.086,233.015Z" transform="translate(-223.741 -230.09)"/></g><g transform="translate(1.218 26.62)"><ellipse class="f" cx="1.455" cy="1.511" rx="1.455" ry="1.511"/></g><g transform="translate(3.673 27.476)"><path class="l" d="M230.078,234.65l1.173,8.68-4.778-.672Z" transform="translate(-226.473 -234.65)"/></g></g></g><g transform="translate(6.537 6.448)"><path class="f" d="M226.108,223.257s6.577,14.082,26.164,12.114c0,0,2.267-9.817-5.461-13.6S229.827,217.74,226.108,223.257Z" transform="translate(-226.108 -219.011)"/></g><g transform="translate(26.779 19.839)"><path class="f" d="M241.162,230.167c2.3.294,2.974,3.8,2.407,6.733s2.207,3.165,4.365,0,2.3-7.929,2.3-7.929Z" transform="translate(-241.162 -228.97)"/></g></g><g transform="translate(83.511 79.642)"><path class="j" d="M252.993,284.673s-1.357,2.224-5.522,2.224c3.7-2.506,6.909-7.483,9.928-13.452Z" transform="translate(-247.471 -273.445)"/></g><g transform="translate(29.56 115.074)"><path class="h" d="M227.2,315.206s11.945-8.067,15.423-9.668c0,0-6.729-1.326-9.979-5.743,0,0,1.03,3.9,2.825,5.744l-28.119,19Z" transform="translate(-207.348 -299.795)"/></g></g><g transform="translate(375.188 166.628)"><g transform="translate(21.645)"><path class="m" d="M450.367,234.033l-82.5-47.63c-2.123-1.226-3.846-.233-3.846,2.22V304.712a8.5,8.5,0,0,0,3.846,6.661l82.5,47.63c2.125,1.226,3.846.233,3.846-2.22V240.694A8.506,8.506,0,0,0,450.367,234.033Z" transform="translate(-364.023 -185.877)"/></g><g transform="translate(0 92.031)"><path class="m" d="M349.366,260.012l26.217,15.137V254.32l-25.651,2.962C347.5,257.563,347.243,258.786,349.366,260.012Z" transform="translate(-347.926 -254.32)"/></g><g transform="translate(33.65 23.991)"><g transform="translate(0.022)"><path class="b" d="M376.171,204.183,435.9,238.668a6.873,6.873,0,0,1,3.2,5.322c0,1.917-1.435,2.642-3.2,1.622l-59.728-34.485a6.873,6.873,0,0,1-3.2-5.322C372.967,203.886,374.4,203.161,376.171,204.183Z" transform="translate(-372.967 -203.719)"/></g><g transform="translate(0 20.814)"><path class="b" d="M376.155,219.662l59.728,34.485a6.873,6.873,0,0,1,3.2,5.322c0,1.917-1.435,2.642-3.2,1.622l-59.728-34.485a6.873,6.873,0,0,1-3.2-5.322C372.951,219.366,374.386,218.64,376.155,219.662Z" transform="translate(-372.951 -219.199)"/></g><g transform="translate(0.022 41.652)"><path class="b" d="M376.171,235.159,435.9,269.644a6.873,6.873,0,0,1,3.2,5.322c0,1.917-1.435,2.644-3.2,1.622L376.171,242.1a6.873,6.873,0,0,1-3.2-5.322C372.967,234.863,374.4,234.137,376.171,235.159Z" transform="translate(-372.967 -234.696)"/></g><g transform="translate(0.022 62.479)"><path class="b" d="M376.171,250.648,435.9,285.133a6.873,6.873,0,0,1,3.2,5.322c0,1.917-1.435,2.642-3.2,1.622l-59.728-34.485a6.873,6.873,0,0,1-3.2-5.322C372.967,250.352,374.4,249.626,376.171,250.648Z" transform="translate(-372.967 -250.185)"/></g><g transform="translate(0.022 83.313)"><path class="b" d="M376.171,266.142,435.9,300.627a6.873,6.873,0,0,1,3.2,5.322c0,1.917-1.435,2.644-3.2,1.622l-59.728-34.485a6.873,6.873,0,0,1-3.2-5.322C372.967,265.846,374.4,265.12,376.171,266.142Z" transform="translate(-372.967 -265.679)"/></g></g></g><g transform="translate(60.125 97.179)"><path class="m" d="M199.961,182.385l-82.5-47.63c-2.125-1.226-3.846-.233-3.846,2.22V253.064a8.5,8.5,0,0,0,3.846,6.661l82.5,47.63c2.123,1.226,3.846.233,3.846-2.22V189.046A8.5,8.5,0,0,0,199.961,182.385Z" transform="translate(-113.617 -134.229)"/><g transform="translate(12.006 23.992)"><g transform="translate(0.02)"><path class="b" d="M125.765,152.535l59.728,34.485a6.873,6.873,0,0,1,3.2,5.322c0,1.917-1.435,2.642-3.2,1.622l-59.728-34.485a6.873,6.873,0,0,1-3.2-5.322C122.561,152.239,124,151.513,125.765,152.535Z" transform="translate(-122.561 -152.072)"/></g><g transform="translate(0 20.815)"><path class="b" d="M125.75,168.015,185.478,202.5a6.873,6.873,0,0,1,3.2,5.322c0,1.917-1.435,2.642-3.2,1.622L125.75,174.958a6.873,6.873,0,0,1-3.2-5.322C122.546,167.719,123.981,166.993,125.75,168.015Z" transform="translate(-122.546 -167.552)"/></g><g transform="translate(0.02 41.652)"><path class="b" d="M125.765,183.511,185.493,218a6.873,6.873,0,0,1,3.2,5.322c0,1.917-1.435,2.642-3.2,1.622l-59.728-34.485a6.873,6.873,0,0,1-3.2-5.322C122.561,183.215,124,182.489,125.765,183.511Z" transform="translate(-122.561 -183.048)"/></g><g transform="translate(0.02 62.479)"><path class="b" d="M125.765,199l59.728,34.485a6.873,6.873,0,0,1,3.2,5.322c0,1.917-1.435,2.642-3.2,1.622l-59.728-34.485a6.873,6.873,0,0,1-3.2-5.322C122.561,198.7,124,197.978,125.765,199Z" transform="translate(-122.561 -198.537)"/></g><g transform="translate(0.02 83.313)"><path class="b" d="M125.765,214.494l59.728,34.485a6.873,6.873,0,0,1,3.2,5.322c0,1.917-1.435,2.642-3.2,1.622l-59.728-34.485a6.873,6.873,0,0,1-3.2-5.322C122.561,214.2,124,213.472,125.765,214.494Z" transform="translate(-122.561 -214.031)"/></g></g><g transform="translate(84.179 137.166)"><path class="m" d="M176.22,257.067l23.468,13.55a1.465,1.465,0,0,0,1.884-2.176l-25.352-32.2Z" transform="translate(-176.22 -236.238)"/></g></g><g transform="translate(0 249.939)"><path class="b" d="M68.9,250.581v53.6a8.5,8.5,0,0,0,3.846,6.661l64.461,37.216c2.123,1.226,3.846.233,3.846-2.22v-53.6a8.5,8.5,0,0,0-3.846-6.661L72.75,248.361C70.625,247.134,68.9,248.128,68.9,250.581Z" transform="translate(-68.903 -247.835)"/><g transform="translate(66.139 57.319)"><path class="b" d="M143.878,317.262l-25.788-26.8v20.829l24.237,8.4A1.48,1.48,0,0,0,143.878,317.262Z" transform="translate(-118.09 -290.463)"/></g><g transform="translate(63.133 28.316)"><path class="p" d="M124.873,270.125c4.981,2.876,9.019,9.87,9.019,15.621s-4.038,8.083-9.019,5.206-9.019-9.87-9.019-15.621S119.891,267.25,124.873,270.125Z" transform="translate(-115.854 -268.893)"/></g><g transform="translate(12.027 17.558)"><path class="p" d="M81.051,261.356l41.691,24.072a6.873,6.873,0,0,1,3.2,5.321c0,1.917-1.435,2.642-3.2,1.62L81.051,268.3a6.873,6.873,0,0,1-3.2-5.322C77.847,261.06,79.282,260.334,81.051,261.356Z" transform="translate(-77.847 -260.893)"/></g><g transform="translate(12.027 34.406)"><path class="p" d="M81.051,273.886l41.691,24.071a6.873,6.873,0,0,1,3.2,5.321c0,1.917-1.435,2.642-3.2,1.62L81.051,280.829a6.873,6.873,0,0,1-3.2-5.322C77.847,273.59,79.282,272.864,81.051,273.886Z" transform="translate(-77.847 -273.423)"/></g><g transform="translate(12.027 51.254)"><path class="p" d="M81.051,286.416l41.691,24.071a6.873,6.873,0,0,1,3.2,5.321c0,1.917-1.435,2.642-3.2,1.62L81.051,293.359a6.873,6.873,0,0,1-3.2-5.322C77.847,286.12,79.282,285.394,81.051,286.416Z" transform="translate(-77.847 -285.953)"/></g></g><g transform="translate(48.099)"><path class="b" d="M104.674,64.7v53.6a8.5,8.5,0,0,0,3.846,6.661l64.461,37.216c2.125,1.226,3.846.233,3.846-2.22v-53.6a8.5,8.5,0,0,0-3.846-6.661L108.52,62.485C106.4,61.256,104.674,62.251,104.674,64.7Z" transform="translate(-104.674 -61.958)"/><g transform="translate(66.139 57.318)"><path class="b" d="M179.649,131.384l-25.788-26.8v20.829l24.236,8.4A1.481,1.481,0,0,0,179.649,131.384Z" transform="translate(-153.861 -104.585)"/></g><g transform="translate(63.131 28.315)"><path class="p" d="M160.643,84.248c4.981,2.876,9.019,9.87,9.019,15.621s-4.038,8.083-9.019,5.206-9.019-9.87-9.019-15.621S155.662,81.372,160.643,84.248Z" transform="translate(-151.624 -83.016)"/></g><g transform="translate(12.027 17.556)"><path class="p" d="M116.822,75.478,158.513,99.55a6.873,6.873,0,0,1,3.2,5.321c0,1.917-1.435,2.642-3.2,1.62L116.822,82.42a6.873,6.873,0,0,1-3.2-5.322C113.617,75.182,115.051,74.456,116.822,75.478Z" transform="translate(-113.618 -75.015)"/></g><g transform="translate(12.027 34.405)"><path class="p" d="M116.822,88.008l41.691,24.072a6.873,6.873,0,0,1,3.2,5.321c0,1.917-1.435,2.642-3.2,1.62L116.822,94.951a6.873,6.873,0,0,1-3.2-5.322C113.617,87.712,115.051,86.986,116.822,88.008Z" transform="translate(-113.618 -87.545)"/></g><g transform="translate(12.027 51.253)"><path class="p" d="M116.822,100.538l41.691,24.072a6.873,6.873,0,0,1,3.2,5.321c0,1.916-1.435,2.642-3.2,1.62l-41.691-24.069a6.873,6.873,0,0,1-3.2-5.322C113.617,100.242,115.051,99.516,116.822,100.538Z" transform="translate(-113.618 -100.075)"/></g></g><g transform="translate(382.205 72.892)"><g transform="translate(20.642)"><path class="b" d="M368.495,118.913v53.6a8.5,8.5,0,0,0,3.846,6.661L436.8,216.393c2.123,1.226,3.846.233,3.846-2.22v-53.6a8.5,8.5,0,0,0-3.846-6.661l-64.461-37.216C370.216,115.466,368.495,116.46,368.495,118.913Z" transform="translate(-368.495 -116.167)"/></g><g transform="translate(0 26.658)"><path class="b" d="M354.8,136l24.978,2.886v20.829L353.7,138.625A1.481,1.481,0,0,1,354.8,136Z" transform="translate(-353.144 -135.992)"/></g><g transform="translate(83.773 28.315)"><path class="p" d="M424.464,138.457c4.981,2.876,9.019,9.87,9.019,15.621s-4.038,8.083-9.019,5.206-9.019-9.87-9.019-15.621S419.483,135.581,424.464,138.457Z" transform="translate(-415.445 -137.225)"/></g><g transform="translate(32.667 17.557)"><path class="p" d="M380.642,129.687l41.691,24.072a6.873,6.873,0,0,1,3.2,5.321c0,1.916-1.435,2.642-3.2,1.62L380.642,136.63a6.873,6.873,0,0,1-3.2-5.322C377.438,129.391,378.873,128.666,380.642,129.687Z" transform="translate(-377.438 -129.224)"/></g><g transform="translate(32.667 34.406)"><path class="p" d="M380.642,142.217l41.691,24.072a6.873,6.873,0,0,1,3.2,5.321c0,1.917-1.435,2.642-3.2,1.62l-41.691-24.071a6.873,6.873,0,0,1-3.2-5.322C377.438,141.921,378.873,141.2,380.642,142.217Z" transform="translate(-377.438 -141.754)"/></g><g transform="translate(32.667 51.253)"><path class="p" d="M380.642,154.747l41.691,24.072a6.873,6.873,0,0,1,3.2,5.321c0,1.917-1.435,2.642-3.2,1.62l-41.691-24.071a6.873,6.873,0,0,1-3.2-5.322C377.438,154.45,378.873,153.725,380.642,154.747Z" transform="translate(-377.438 -154.283)"/></g></g></g></g></svg>